<svg width="501" height="500" viewBox="0 0 501 500" fill="none" xmlns="http://www.w3.org/2000/svg">
<path d="M483.116 340.572C447.015 433.776 360.072 494.043 264.823 499.698V356.346L346.448 297.043L483.116 340.572Z" fill="#A1A1A1"/>
<path d="M234.823 355.992V499.663C214.191 498.388 193.383 494.515 172.813 487.832C98.9434 463.83 43.8872 408.698 17.4499 341.678L154.038 297.299L234.823 355.992Z" fill="#00D492"/>
<path d="M175.66 172.758L144.428 268.878L8.12862 313.164C-3.57191 268.471 -3.03273 220.014 12.3034 172.814C27.6398 125.614 55.6855 86.0933 91.4216 56.8132L175.66 172.758Z" fill="#FF6467" fill-opacity="0.4"/>
<path d="M115.724 39.2224C176.505 0.542896 253.453 -11.698 327.322 12.3035C347.891 18.9869 367.002 28.0849 384.442 39.1804L299.995 155.414H200.142L115.724 39.2224Z" fill="#51A2FF"/>
<path d="M408.733 56.7849C482.004 116.964 516.943 215.951 492.282 312.006L355.569 268.463L324.473 172.759L408.733 56.7849Z" fill="#C27AFF"/>
<path d="M297.043 185.414L326.074 274.764L250.068 329.986L174.06 274.764L203.092 185.414H297.043Z" fill="#FFB900"/>
</svg>
